<?xml version="1.0" encoding="utf-8"?>
<!-- Generator: Adobe Illustrator 27.0.1, SVG Export Plug-In . SVG Version: 6.00 Build 0)  -->
<svg version="1.1" id="Layer_1" xmlns="http://www.w3.org/2000/svg" xmlns:xlink="http://www.w3.org/1999/xlink" x="0px" y="0px"
	 viewBox="0 0 400 260" style="enable-background:new 0 0 400 260;" xml:space="preserve">
<style type="text/css">
	.st0{fill:#0891D4;}
	.st1{fill:#FFFFFF;}
</style>
<g>
	<g>
		<g>
			<g>
				<path class="st0" d="M286.25,260.14h-172.5c-38.21,0-69.3-31.09-69.3-69.3V69.16c0-38.21,31.09-69.3,69.3-69.3h172.5
					c38.21,0,69.3,31.09,69.3,69.3v121.68C355.55,229.05,324.46,260.14,286.25,260.14z M113.75,20.25
					c-26.97,0-48.91,21.94-48.91,48.91v121.68c0,26.97,21.94,48.91,48.91,48.91h172.5c26.97,0,48.91-21.94,48.91-48.91V69.16
					c0-26.97-21.94-48.91-48.91-48.91H113.75z"/>
			</g>
			<g>
				<g>
					<path class="st0" d="M367.61,195.05h-32.46V75.89h32.46c17.86,0,32.39,14.53,32.39,32.39v54.39
						C400,180.52,385.47,195.05,367.61,195.05z M355.55,174.65h12.06c6.61,0,11.99-5.38,11.99-11.99v-54.39
						c0-6.61-5.38-11.99-11.99-11.99h-12.06V174.65z"/>
				</g>
			</g>
			<g>
				<g>
					<path class="st0" d="M64.85,195.05H32.39C14.53,195.05,0,180.52,0,162.66v-54.39c0-17.86,14.53-32.39,32.39-32.39h32.46V195.05
						z M32.39,96.28c-6.61,0-11.99,5.38-11.99,11.99v54.39c0,6.61,5.38,11.99,11.99,11.99h12.06V96.28H32.39z"/>
				</g>
			</g>
			<g>
				<g>
					<g>
						<path class="st1" d="M138.58,177.09c-25.97,0-47.09-21.13-47.09-47.09s21.13-47.09,47.09-47.09s47.09,21.13,47.09,47.09
							S164.55,177.09,138.58,177.09z M138.58,103.3c-14.72,0-26.7,11.98-26.7,26.7s11.98,26.69,26.7,26.69
							c14.72,0,26.69-11.97,26.69-26.69S153.3,103.3,138.58,103.3z"/>
					</g>
					<g>
						<path class="st1" d="M261.42,177.09c-25.97,0-47.09-21.13-47.09-47.09s21.13-47.09,47.09-47.09s47.09,21.13,47.09,47.09
							S287.39,177.09,261.42,177.09z M261.42,103.3c-14.72,0-26.69,11.98-26.69,26.7s11.97,26.69,26.69,26.69
							c14.72,0,26.69-11.97,26.69-26.69S276.14,103.3,261.42,103.3z"/>
					</g>
				</g>
			</g>
		</g>
	</g>
</g>
</svg>
